<?xml version="1.0" standalone="no"?>
<!DOCTYPE svg PUBLIC "-//W3C//DTD SVG 20010904//EN"
 "http://www.w3.org/TR/2001/REC-SVG-20010904/DTD/svg10.dtd">
<svg version="1.0" xmlns="http://www.w3.org/2000/svg"
 width="284.000000pt" height="292.000000pt" viewBox="0 0 284.000000 292.000000"
 preserveAspectRatio="xMidYMid meet">

<g transform="translate(0.000000,292.000000) scale(0.100000,-0.100000)"
fill="#000000" stroke="none">
<path d="M1222 2800 c-58 -9 -80 -20 -41 -20 23 -1 23 -2 -6 -16 -16 -8 -21
-12 -10 -8 51 15 152 24 283 24 110 0 143 3 140 13 -5 14 -279 20 -366 7z
m318 -6 c-80 -8 -277 -8 -267 -2 7 4 77 7 157 6 80 -1 129 -3 110 -4z"/>
<path d="M1600 2783 c0 -12 3 -14 11 -6 6 6 30 9 52 7 37 -3 39 -2 12 5 -51
15 -75 13 -75 -6z"/>
<path d="M1035 2754 c-61 -21 -58 -24 10 -9 11 3 5 -2 -14 -11 -42 -19 -103
-31 -81 -15 19 14 9 14 -27 0 -22 -8 -25 -12 -13 -20 11 -8 7 -9 -15 -5 -16 3
-24 3 -17 0 18 -8 15 -24 -5 -24 -9 0 -14 -3 -10 -6 3 -4 26 2 49 14 48 22
176 62 201 62 16 0 30 24 20 34 -9 9 -21 6 -98 -20z"/>
<path d="M1720 2772 c8 -5 35 -12 60 -15 54 -7 24 7 -35 17 -25 4 -34 3 -25
-2z"/>
<path d="M1648 2763 c7 -3 16 -2 19 1 4 3 -2 6 -13 5 -11 0 -14 -3 -6 -6z"/>
<path d="M1686 2761 c9 -9 83 -27 74 -18 -3 3 -23 10 -44 16 -22 5 -35 6 -30
2z"/>
<path d="M1805 2740 l-40 -6 35 -7 c19 -4 72 -23 118 -42 48 -19 78 -28 72
-19 -10 11 -9 14 3 14 8 0 17 -5 19 -11 2 -7 11 -10 19 -7 8 3 -10 16 -46 33
-87 39 -135 51 -180 45z m75 -16 c0 -2 -9 -4 -20 -4 -11 0 -20 4 -20 9 0 5 9
7 20 4 11 -3 20 -7 20 -9z m66 -29 c16 -8 22 -15 14 -15 -18 1 -70 29 -54 30
7 0 25 -7 40 -15z"/>
<path d="M1306 2685 c-11 -11 -21 -13 -41 -5 -17 6 -42 6 -75 -1 -63 -13 -64
-20 -2 -14 40 4 42 3 17 -5 -30 -9 -30 -9 5 -5 133 17 291 17 394 0 60 -9 119
-21 132 -27 13 -6 38 -7 61 -3 l38 7 -40 15 c-37 13 -116 23 -192 24 -18 0
-34 7 -37 15 -8 21 -238 20 -260 -1z m157 -2 c-13 -2 -35 -2 -50 0 -16 2 -5 4
22 4 28 0 40 -2 28 -4z m94 1 c-3 -3 -12 -4 -19 -1 -8 3 -5 6 6 6 11 1 17 -2
13 -5z m196 -41 c-7 -2 -19 -2 -25 0 -7 3 -2 5 12 5 14 0 19 -2 13 -5z"/>
<path d="M789 2653 c-1 -5 -1 -12 0 -16 1 -5 -7 -6 -18 -2 -11 3 -22 1 -26 -4
-3 -7 0 -8 9 -5 9 3 16 1 16 -5 0 -7 16 -3 40 9 22 11 40 23 40 25 0 8 -60 6
-61 -2z"/>
<path d="M1028 2638 c-57 -19 -69 -30 -47 -43 6 -4 17 2 25 14 8 12 23 21 32
21 15 0 15 -2 2 -10 -13 -9 -13 -10 0 -9 24 1 58 17 40 19 -8 1 -1 8 15 15 47
22 0 17 -67 -7z"/>
<path d="M2055 2651 c6 -11 2 -12 -21 -7 -28 7 -28 7 -9 -8 11 -8 23 -16 28
-16 4 0 25 -11 47 -25 43 -27 50 -29 50 -16 0 5 -12 12 -26 15 -15 4 -24 9
-22 12 11 11 59 -17 56 -32 -2 -9 3 -19 11 -22 9 -3 11 0 6 8 -4 7 6 5 24 -6
17 -10 29 -24 27 -31 -3 -7 -1 -15 4 -18 6 -4 10 -1 10 4 0 6 4 11 10 11 5 0
7 -6 5 -13 -3 -7 10 -27 30 -45 19 -19 35 -29 35 -24 0 5 -7 15 -15 22 -9 7
-13 15 -10 18 2 3 27 -16 54 -41 50 -47 51 -68 2 -25 -21 18 -20 16 4 -10 16
-18 35 -30 42 -28 7 3 15 1 18 -5 4 -5 3 -9 -2 -8 -21 4 -19 -4 14 -40 24 -27
40 -38 52 -33 13 5 14 3 3 -10 -10 -12 -10 -17 1 -27 8 -6 16 -9 19 -6 3 3 11
-1 18 -10 8 -10 9 -15 2 -15 -6 0 -9 -7 -6 -15 4 -8 10 -13 14 -10 10 6 7 37
-7 60 -11 17 -14 18 -24 5 -9 -12 -10 -11 -6 8 12 55 -213 265 -387 363 -33
18 -56 27 -51 20z m35 -32 c0 -6 -4 -7 -10 -4 -5 3 -10 11 -10 16 0 6 5 7 10
4 6 -3 10 -11 10 -16z m374 -308 c-6 -6 -34 20 -34 32 0 6 8 2 19 -9 10 -10
17 -21 15 -23z"/>
<path d="M1108 2633 c6 -2 18 -2 25 0 6 3 1 5 -13 5 -14 0 -19 -2 -12 -5z"/>
<path d="M1830 2620 c-18 -11 -20 -10 64 -46 91 -38 95 -39 71 -21 -19 15 -19
15 7 10 31 -6 60 -33 37 -33 -8 0 4 -11 25 -24 21 -13 47 -21 56 -19 10 3 21
-1 25 -8 5 -8 4 -10 -3 -5 -7 4 -12 2 -12 -3 0 -6 10 -10 21 -8 12 1 24 -4 27
-12 3 -9 0 -11 -8 -6 -9 5 -11 4 -6 -4 6 -9 11 -9 22 0 13 11 11 16 -13 36
-17 14 -37 22 -51 19 -16 -2 -22 1 -18 10 6 15 -35 40 -144 88 -45 20 -82 36
-83 36 -1 0 -9 -4 -17 -10z m73 -22 c15 -5 27 -14 27 -19 0 -5 -19 0 -42 12
-47 24 -64 36 -33 25 11 -5 32 -13 48 -18z"/>
<path d="M720 2593 c-13 -15 -12 -16 4 -10 10 4 20 7 22 7 2 0 4 5 4 10 0 15
-13 12 -30 -7z"/>
<path d="M660 2578 c-14 -11 -24 -28 -22 -37 2 -14 1 -14 -7 -1 -9 13 -14 12
-33 -8 -21 -21 -21 -23 -3 -17 17 6 16 3 -5 -14 -14 -11 -20 -20 -15 -20 15 0
71 51 78 72 4 9 11 17 17 17 6 0 8 -4 5 -10 -3 -6 1 -7 10 -3 13 5 14 7 3 14
-11 7 -10 11 2 19 8 5 11 10 5 10 -5 -1 -21 -10 -35 -22z"/>
<path d="M948 2583 c7 -3 16 -2 19 1 4 3 -2 6 -13 5 -11 0 -14 -3 -6 -6z"/>
<path d="M837 2556 c-21 -13 -45 -32 -53 -44 -8 -12 -20 -19 -28 -16 -27 10
-248 -175 -244 -205 2 -10 -3 -16 -14 -15 -11 1 -14 -4 -11 -14 4 -9 2 -13 -4
-9 -6 4 -19 -3 -29 -16 l-19 -22 23 19 c29 25 28 11 -2 -25 -16 -18 -26 -24
-29 -16 -2 6 -3 5 -2 -4 1 -8 -4 -24 -13 -35 -14 -18 -14 -18 -9 4 3 12 3 22
1 22 -3 0 -9 -10 -14 -22 -5 -13 -18 -34 -27 -48 -12 -15 -13 -21 -4 -16 9 6
12 5 9 -5 -3 -8 -10 -13 -16 -12 -13 3 -75 -114 -67 -127 3 -5 3 -21 -1 -35
-4 -16 -10 -22 -14 -16 -18 31 -64 -141 -63 -239 0 -60 -1 -66 -6 -30 l-6 45
-8 -40 c-10 -60 -8 -354 4 -330 7 15 8 10 4 -20 -3 -22 4 -73 14 -115 10 -41
19 -69 20 -62 1 18 21 5 21 -14 0 -8 -4 -12 -10 -9 -13 8 -12 5 1 -34 6 -17
17 -31 24 -31 14 0 37 -54 28 -64 -3 -3 -3 -16 1 -30 4 -17 11 -23 21 -20 8 4
15 2 15 -4 0 -6 -4 -12 -10 -14 -6 -2 -6 -9 0 -18 7 -11 12 -12 20 -4 8 8 4
26 -14 65 -37 82 -76 186 -76 203 0 9 -8 16 -17 17 -11 0 -13 3 -5 6 6 2 12
12 12 21 0 13 -2 14 -9 4 -7 -11 -10 -10 -15 3 -10 26 -7 42 5 25 8 -11 8 -1
3 35 -4 28 -7 58 -8 68 0 9 -4 17 -8 17 -3 0 -4 16 -1 35 4 23 2 35 -6 35 -7
0 -10 29 -9 93 1 50 3 74 6 52 4 -33 8 -18 24 80 11 66 21 132 21 147 1 14 5
24 8 22 4 -2 9 9 12 25 3 15 24 70 46 121 22 51 37 98 34 103 -3 6 -1 7 5 3 7
-4 19 9 31 31 23 46 124 179 158 210 14 12 22 26 19 32 -4 5 -1 13 5 17 8 5 9
3 4 -7 -8 -13 29 14 50 37 6 6 31 26 56 45 25 19 44 40 41 47 -2 8 3 10 15 6
13 -4 14 -3 5 4 -11 7 -10 10 3 16 23 8 27 8 20 -3 -3 -6 15 2 40 15 25 14 42
30 39 36 -3 5 0 8 7 7 8 -2 31 3 52 11 31 12 35 16 20 21 -27 11 -34 9 -76
-15z m-153 -121 c-10 -8 -23 -15 -28 -15 -6 0 -1 7 10 15 10 8 23 15 28 15 6
0 1 -7 -10 -15z m-44 -34 c0 -5 -7 -12 -16 -15 -14 -5 -15 -4 -4 9 14 17 20
19 20 6z m-240 -271 c0 -5 -5 -10 -11 -10 -5 0 -7 5 -4 10 3 6 8 10 11 10 2 0
4 -4 4 -10z m-90 -161 c-7 -11 -14 -18 -17 -15 -3 3 0 12 7 21 18 21 23 19 10
-6z m-49 -116 c-12 -20 -14 -14 -5 12 4 9 9 14 11 11 3 -2 0 -13 -6 -23z m-34
-125 c-3 -8 -6 -5 -6 6 -1 11 2 17 5 13 3 -3 4 -12 1 -19z m43 -688 c0 -5 -2
-10 -4 -10 -3 0 -8 5 -11 10 -3 6 -1 10 4 10 6 0 11 -4 11 -10z"/>
<path d="M485 2433 c-44 -41 -72 -73 -62 -69 13 4 17 2 14 -6 -2 -7 -12 -13
-22 -13 -17 0 -75 -61 -75 -79 0 -5 6 -2 13 8 7 9 21 19 32 20 14 2 19 10 18
27 -1 13 1 18 4 11 4 -10 11 -8 29 9 15 14 20 25 14 29 -7 4 -6 11 5 20 12 10
15 10 15 -1 0 -7 15 2 34 20 22 21 32 39 29 49 -5 11 -1 14 14 10 16 -4 21 -1
21 18 0 13 -1 24 -2 24 0 -1 -37 -35 -81 -77z"/>
<path d="M2164 2438 c-7 -11 47 -68 66 -68 13 0 13 17 0 23 -6 3 -5 4 2 3 7
-2 12 -12 11 -24 -3 -26 25 -52 36 -33 6 9 16 4 35 -19 14 -17 23 -36 20 -41
-7 -12 51 -73 63 -66 5 3 14 -3 21 -14 10 -16 9 -19 -4 -19 -8 0 -13 -4 -9
-10 3 -5 12 -7 19 -4 8 3 17 1 21 -5 3 -6 -1 -11 -10 -11 -9 0 -13 -4 -10 -10
10 -17 35 -11 35 8 0 9 -11 30 -25 46 -14 16 -25 34 -25 40 0 6 -5 4 -10 -4
-9 -14 -11 -12 -14 20 0 8 -9 14 -19 13 -11 0 -16 4 -13 12 5 14 -57 82 -128
139 -48 40 -52 41 -62 24z m40 -24 c5 -14 4 -15 -9 -4 -17 14 -19 20 -6 20 5
0 12 -7 15 -16z m71 -54 c3 -5 2 -10 -4 -10 -5 0 -13 5 -16 10 -3 6 -2 10 4
10 5 0 13 -4 16 -10z"/>
<path d="M2290 2313 c0 -13 29 -38 35 -31 3 3 -4 13 -15 23 -11 10 -20 13 -20
8z"/>
<path d="M360 2264 c0 -8 5 -12 10 -9 6 3 10 10 10 16 0 5 -4 9 -10 9 -5 0
-10 -7 -10 -16z"/>
<path d="M316 2244 c-4 -9 -2 -12 5 -8 7 4 10 1 7 -7 -3 -8 -10 -13 -16 -12
-11 3 -62 -63 -62 -78 0 -4 6 -9 14 -12 9 -4 22 6 34 27 11 18 26 44 35 57 13
20 13 26 2 36 -10 10 -14 9 -19 -3z m-34 -86 c-7 -7 -12 -8 -12 -2 0 14 12 26
19 19 2 -3 -1 -11 -7 -17z"/>
<path d="M2546 2194 c-3 -9 0 -28 7 -43 42 -79 62 -111 69 -111 5 0 7 -3 4 -8
-2 -4 4 -24 13 -45 15 -32 20 -36 30 -24 9 11 9 21 0 41 -7 14 -16 23 -22 19
-5 -3 -6 3 -3 15 4 11 2 23 -4 27 -5 3 -10 1 -10 -5 0 -21 -18 0 -29 32 l-11
33 20 -25 c11 -14 20 -21 20 -17 0 9 -70 127 -75 127 -2 0 -6 -7 -9 -16z m118
-199 c3 -8 1 -15 -4 -15 -6 0 -10 7 -10 15 0 8 2 15 4 15 2 0 6 -7 10 -15z"/>
<path d="M2452 2103 c8 -10 18 -26 22 -37 4 -11 12 -16 22 -12 12 5 15 2 10
-10 -8 -21 46 -132 62 -126 7 2 12 -4 12 -13 0 -9 -4 -13 -10 -10 -5 3 -10 1
-10 -5 0 -7 6 -10 14 -7 10 4 13 -4 13 -31 -1 -53 11 -92 28 -92 17 0 19 -11
6 -25 -5 -6 -3 -52 6 -110 18 -124 9 -385 -16 -455 -5 -14 -12 -37 -15 -52 -3
-14 -9 -34 -12 -45 -6 -16 -5 -16 10 2 15 19 15 17 2 -20 -7 -22 -18 -40 -25
-40 -6 0 -11 -4 -12 -10 -1 -5 -17 -41 -38 -78 -20 -37 -42 -79 -49 -92 -8
-16 -10 -31 -4 -41 9 -16 13 -11 83 120 7 13 7 16 0 11 -15 -9 -13 5 5 35 l15
25 -6 -25 c-8 -38 33 54 46 103 6 23 14 49 19 57 4 9 11 36 15 60 4 25 10 54
12 65 18 68 13 422 -5 411 -4 -2 -7 15 -8 38 -1 54 -12 98 -23 91 -5 -2 -12 2
-15 11 -3 8 -2 12 4 9 17 -11 11 17 -22 102 -18 45 -36 80 -40 77 -4 -3 -8 6
-8 20 0 26 -49 115 -63 116 -5 0 -5 -4 -2 -10 3 -5 1 -10 -4 -10 -6 0 -11 5
-11 10 0 6 -5 10 -12 10 -7 0 -6 -6 4 -17z m78 -73 c0 -5 -4 -10 -10 -10 -5 0
-10 5 -10 10 0 6 5 10 10 10 6 0 10 -4 10 -10z m128 -596 l-3 -119 -5 127 c-3
70 -1 124 3 119 4 -4 6 -61 5 -127z m-28 -283 c0 -6 -4 -13 -10 -16 -5 -3 -10
1 -10 9 0 9 5 16 10 16 6 0 10 -4 10 -9z m-118 -293 c-8 -8 -9 -4 -5 13 4 13
8 18 11 10 2 -7 -1 -18 -6 -23z m-18 -33 c-4 -8 -8 -15 -10 -15 -2 0 -4 7 -4
15 0 8 4 15 10 15 5 0 7 -7 4 -15z"/>
<path d="M250 2099 c0 -5 -4 -7 -10 -4 -13 8 -44 -45 -80 -139 -40 -104 -47
-131 -30 -121 10 6 12 4 7 -9 -4 -10 -7 -27 -8 -39 -1 -20 -2 -20 -8 3 -6 21
-11 12 -25 -50 -21 -87 -29 -257 -12 -263 7 -2 7 -20 -3 -56 -9 -35 -11 -75
-7 -120 9 -81 34 -196 35 -160 1 15 3 42 6 60 4 24 3 28 -3 14 -8 -16 -10 -15
-15 14 -9 41 -7 64 1 33 4 -13 7 73 8 190 1 216 3 237 50 387 5 16 4 22 -3 18
-12 -8 1 63 18 94 17 32 19 21 3 -17 -8 -20 -14 -43 -12 -51 2 -9 13 12 25 46
12 34 18 59 13 56 -6 -3 -10 1 -10 9 0 17 17 30 22 17 1 -5 15 15 31 45 15 30
23 54 17 54 -5 0 -10 -5 -10 -11z m-19 -46 c-12 -20 -14 -14 -5 12 4 9 9 14
11 11 3 -2 0 -13 -6 -23z m-114 -315 c-3 -8 -6 -5 -6 6 -1 11 2 17 5 13 3 -3
4 -12 1 -19z m-30 -200 c-3 -8 -6 -5 -6 6 -1 11 2 17 5 13 3 -3 4 -12 1 -19z"/>
<path d="M2666 1945 c-7 -18 3 -45 16 -45 6 0 7 -7 4 -16 -3 -8 -2 -13 2 -10
4 2 9 -12 10 -32 1 -20 8 -57 16 -82 l13 -45 -3 79 c-2 44 -7 82 -12 85 -5 3
-12 23 -16 44 -7 38 -20 48 -30 22z"/>
<path d="M2731 1805 c-1 -12 6 -47 14 -78 8 -32 14 -70 14 -85 l-1 -27 -7 30
c-3 16 -5 -62 -3 -174 1 -112 5 -208 8 -213 4 -6 1 -14 -6 -18 -7 -4 -9 -16
-6 -28 4 -13 2 -24 -7 -29 -16 -10 -40 -89 -32 -103 3 -6 3 -10 -2 -10 -10 0
-42 -107 -41 -135 1 -11 -2 -29 -6 -40 -4 -11 4 2 19 29 14 28 25 57 24 65 0
9 -7 3 -14 -14 -9 -20 -14 -24 -15 -12 0 10 11 28 23 40 26 24 44 77 27 77 -5
0 -10 7 -10 15 0 18 16 20 24 3 3 -7 4 5 1 27 -4 29 -3 36 4 25 6 -8 11 -13
11 -10 0 3 7 43 15 90 18 100 18 99 5 80 -9 -13 -10 -13 -10 1 0 8 5 20 11 26
19 19 5 322 -19 413 -11 41 -21 66 -21 55z m36 -317 c-3 -7 -5 -2 -5 12 0 14
2 19 5 13 2 -7 2 -19 0 -25z m0 -40 c-3 -8 -6 -5 -6 6 -1 11 2 17 5 13 3 -3 4
-12 1 -19z m0 -85 c-3 -10 -5 -4 -5 12 0 17 2 24 5 18 2 -7 2 -21 0 -30z"/>
<path d="M2731 1694 c0 -11 3 -14 6 -6 3 7 2 16 -1 19 -3 4 -6 -2 -5 -13z"/>
<path d="M126 1140 c3 -25 10 -49 15 -55 11 -10 5 22 -13 75 -5 17 -6 11 -2
-20z"/>
<path d="M111 1100 c0 -8 4 -22 9 -30 12 -18 12 -2 0 25 -6 13 -9 15 -9 5z"/>
<path d="M134 1047 c-2 -7 0 -24 5 -38 5 -13 10 -18 10 -11 1 6 6 12 11 12 12
0 9 -22 -4 -31 -11 -8 63 -165 115 -246 24 -37 49 -63 63 -67 13 -3 27 -13 30
-22 5 -14 4 -15 -9 -4 -27 23 -26 5 3 -30 40 -51 109 -121 83 -86 -12 16 -19
31 -16 34 7 7 50 -51 47 -64 -1 -6 5 -17 13 -24 10 -9 15 -9 15 -1 0 18 14 13
29 -10 12 -20 11 -21 -5 -15 -10 4 -15 3 -10 -1 10 -10 56 -11 56 -1 0 4 -3 8
-7 8 -10 1 -78 65 -125 118 -39 43 -46 46 -28 11 6 -10 8 -19 4 -19 -13 0 -33
35 -34 57 0 13 -15 42 -32 66 -18 23 -41 54 -51 67 -10 14 -15 19 -12 13 3 -7
1 -13 -6 -13 -6 0 -9 8 -6 19 2 10 0 26 -5 36 -9 14 -12 15 -20 4 -7 -10 -8
-8 -3 8 6 22 -21 90 -32 79 -3 -3 0 -12 7 -20 6 -9 10 -21 7 -28 -4 -9 -6 -7
-6 4 -1 9 -5 18 -10 20 -5 2 -13 16 -17 32 -5 21 -4 27 5 22 13 -8 15 6 2 20
-5 5 -16 33 -26 62 -16 51 -31 65 -41 39z m176 -327 c0 -5 -2 -10 -4 -10 -3 0
-8 5 -11 10 -3 6 -1 10 4 10 6 0 11 -4 11 -10z m185 -230 c3 -5 1 -10 -4 -10
-6 0 -11 5 -11 10 0 6 2 10 4 10 3 0 8 -4 11 -10z"/>
<path d="M2622 885 c-19 -39 -19 -43 -4 -38 14 5 15 3 5 -8 -7 -7 -13 -19 -13
-27 0 -8 -8 -24 -19 -37 -13 -18 -21 -21 -30 -12 -8 8 -11 8 -11 -1 0 -7 5
-12 11 -12 6 0 9 -6 7 -12 -3 -7 -13 -13 -24 -13 -13 0 -19 -7 -19 -22 0 -12
-5 -26 -9 -30 -5 -4 -6 -2 -2 5 4 6 2 12 -5 12 -6 0 -9 -8 -6 -19 3 -14 1 -18
-10 -14 -12 5 -14 1 -8 -18 4 -16 3 -20 -3 -10 -7 10 -11 10 -17 1 -4 -7 -2
-16 6 -20 17 -11 68 55 70 90 0 14 3 19 6 12 6 -15 53 48 80 108 13 28 27 110
19 110 -1 0 -12 -20 -24 -45z"/>
<path d="M346 844 c-8 -20 39 -91 48 -72 3 7 4 3 2 -9 -5 -28 56 -99 75 -88 9
6 11 3 6 -8 -9 -24 2 -47 19 -40 8 3 21 0 29 -7 26 -22 16 4 -16 38 -17 19
-36 31 -44 28 -7 -2 -16 1 -19 9 -3 8 0 15 5 17 6 2 -2 19 -18 39 -15 20 -37
52 -48 72 -21 41 -30 45 -39 21z m24 -14 c0 -5 -2 -10 -4 -10 -3 0 -8 5 -11
10 -3 6 -1 10 4 10 6 0 11 -4 11 -10z m60 -96 c0 -8 -4 -12 -10 -9 -5 3 -10
13 -10 21 0 8 5 12 10 9 6 -3 10 -13 10 -21z"/>
<path d="M2445 790 c-3 -5 -1 -10 4 -10 6 0 11 5 11 10 0 6 -2 10 -4 10 -3 0
-8 -4 -11 -10z"/>
<path d="M2407 738 c-15 -18 -27 -37 -26 -43 0 -5 11 4 24 20 14 17 25 26 25
21 0 -5 -7 -18 -17 -28 -9 -10 -11 -18 -5 -18 13 0 64 71 57 79 -3 2 -12 -4
-21 -15 -13 -16 -15 -17 -10 -1 7 24 4 22 -27 -15z"/>
<path d="M2364 674 c3 -8 -1 -14 -10 -14 -10 0 -14 -6 -11 -14 3 -8 -1 -13
-10 -12 -9 0 -18 -5 -21 -13 -3 -8 0 -11 7 -7 6 4 11 2 11 -4 0 -7 -8 -9 -21
-5 -15 5 -20 3 -17 -6 8 -24 27 -20 55 12 15 17 34 38 41 45 18 19 15 30 -9
31 -14 1 -19 -3 -15 -13z"/>
<path d="M500 616 c0 -5 16 -24 37 -44 20 -21 31 -28 26 -17 -13 23 -63 72
-63 61z"/>
<path d="M575 569 c17 -18 35 -37 42 -42 7 -4 10 -14 7 -21 -3 -8 7 -23 23
-36 15 -12 29 -17 31 -11 2 5 11 7 20 5 10 -4 5 5 -12 21 -16 14 -34 24 -42
21 -7 -3 -11 0 -8 7 2 7 -17 30 -43 51 l-48 39 30 -34z m100 -89 c8 -13 -5
-13 -25 0 -13 8 -13 10 2 10 9 0 20 -4 23 -10z"/>
<path d="M2446 575 c-3 -8 -1 -15 4 -15 6 0 10 7 10 15 0 8 -2 15 -4 15 -2 0
-6 -7 -10 -15z"/>
<path d="M2245 560 c-18 -20 -15 -38 4 -25 15 9 33 45 23 45 -5 0 -17 -9 -27
-20z"/>
<path d="M2398 553 c-21 -23 -24 -30 -13 -40 10 -9 17 -7 31 9 14 16 16 22 6
25 -10 4 -10 8 -1 19 20 25 4 15 -23 -13z"/>
<path d="M2285 560 c-3 -5 -1 -10 4 -10 6 0 11 5 11 10 0 6 -2 10 -4 10 -3 0
-8 -4 -11 -10z"/>
<path d="M1638 523 c7 -3 16 -2 19 1 4 3 -2 6 -13 5 -11 0 -14 -3 -6 -6z"/>
<path d="M2165 489 c-27 -22 -49 -44 -47 -49 1 -6 -7 -10 -18 -10 -11 0 -20
-5 -20 -11 0 -5 5 -7 10 -4 6 3 10 -2 10 -11 0 -14 6 -12 30 11 16 15 27 33
23 38 -3 6 -1 7 6 3 15 -10 43 13 34 27 -4 6 -1 7 6 3 7 -5 21 0 32 10 15 13
16 19 7 26 -18 11 -17 11 -73 -33z"/>
<path d="M2343 495 c-13 -9 -20 -22 -16 -30 4 -11 1 -13 -13 -8 -16 6 -17 5
-6 -9 11 -14 10 -16 -8 -11 -11 3 -20 2 -19 -3 3 -20 -2 -34 -12 -34 -5 0 -7
5 -4 10 11 17 -9 10 -39 -14 -28 -24 -28 -24 -7 -35 18 -10 21 -9 18 10 -1 12
4 24 12 27 8 3 11 0 7 -7 -16 -25 13 -7 69 44 42 37 57 57 50 64 -8 8 -17 6
-32 -4z m17 -15 c0 -5 -4 -10 -10 -10 -5 0 -10 5 -10 10 0 6 5 10 10 10 6 0
10 -4 10 -10z"/>
<path d="M729 433 c6 -22 27 -38 107 -80 54 -29 106 -52 114 -52 8 0 3 7 -12
15 -31 17 -37 26 -10 18 9 -4 2 4 -16 15 -25 16 -37 19 -47 11 -9 -8 -15 -8
-20 0 -3 5 0 10 7 10 12 0 -21 25 -94 68 l-36 23 7 -28z m73 -36 c7 -8 20 -16
28 -20 13 -5 13 -5 0 -6 -8 0 -26 8 -40 19 -14 11 -20 20 -13 20 6 0 18 -6 25
-13z"/>
<path d="M700 435 c7 -9 15 -13 17 -11 7 7 -7 26 -19 26 -6 0 -6 -6 2 -15z"/>
<path d="M556 409 c3 -6 13 -8 21 -5 8 3 11 1 8 -4 -7 -11 32 -49 50 -50 6 0
3 5 -5 10 -13 8 -12 10 3 10 9 0 17 -7 17 -14 0 -21 67 -69 85 -62 9 3 13 2
10 -4 -12 -20 139 -92 170 -80 17 6 10 12 -39 34 -67 30 -159 84 -231 136 -46
33 -104 52 -89 29z m159 -97 c-5 -5 -45 22 -45 31 0 4 11 0 24 -10 13 -10 23
-19 21 -21z m125 -65 c13 -5 13 -6 -1 -6 -8 -1 -24 6 -35 15 -19 15 -19 15 1
6 11 -5 27 -12 35 -15z"/>
<path d="M950 326 c0 -2 7 -7 16 -10 8 -3 12 -2 9 4 -6 10 -25 14 -25 6z"/>
<path d="M990 296 c0 -8 7 -17 16 -20 22 -9 36 -7 30 3 -3 4 6 6 20 3 16 -3
21 -7 14 -12 -8 -5 -6 -9 6 -14 9 -4 22 -2 27 3 11 11 39 3 32 -10 -8 -12 59
-27 150 -34 44 -3 97 -8 118 -10 27 -2 37 1 37 11 0 8 7 14 16 14 8 0 12 -5 9
-11 -8 -12 138 -10 158 3 7 5 1 8 -15 8 -16 0 -28 5 -28 10 0 6 -7 10 -16 10
-10 0 -14 -6 -10 -15 4 -12 -3 -15 -32 -15 -28 0 -33 3 -22 10 10 7 -10 10
-65 10 -55 0 -75 -3 -65 -10 23 -15 -3 -12 -43 5 -20 8 -51 15 -69 14 -28 0
-30 -2 -13 -9 17 -7 16 -9 -10 -9 -16 0 -39 5 -50 10 -19 9 -18 9 2 5 13 -2
26 0 29 5 3 5 -8 9 -24 9 -16 0 -53 8 -83 18 -83 29 -119 34 -119 18z"/>
<path d="M2500 230 c0 -5 5 -10 10 -10 6 0 10 5 10 10 0 6 -4 10 -10 10 -5 0
-10 -4 -10 -10z"/>
<path d="M950 199 c12 -8 8 -9 -15 -5 -30 5 -30 5 4 -10 19 -9 64 -23 100 -31
36 -9 75 -19 86 -24 11 -4 33 -10 49 -14 25 -5 28 -4 18 8 -7 8 -9 16 -6 19 9
10 -46 19 -79 13 -20 -4 -55 2 -92 14 -40 13 -51 20 -34 20 14 1 29 -3 35 -8
5 -5 27 -12 49 -15 40 -6 40 -6 -10 12 -64 24 -126 36 -105 21z m205 -59 c8
-13 -5 -13 -25 0 -13 8 -13 10 2 10 9 0 20 -4 23 -10z"/>
<path d="M1708 163 c-10 -2 -18 -8 -18 -13 0 -13 38 -19 68 -10 22 7 15 15
-10 11 -5 0 -8 4 -8 9 0 10 -3 11 -32 3z"/>
<path d="M1209 137 c5 -5 26 -7 47 -5 l39 3 -47 5 c-26 3 -43 1 -39 -3z"/>
<path d="M1630 140 c-8 -5 -26 -7 -40 -4 -25 4 -25 4 -2 -6 13 -5 21 -14 18
-19 -4 -5 10 -5 32 -1 67 15 78 19 32 14 -44 -5 -48 9 -5 19 l20 5 -20 1 c-11
0 -27 -4 -35 -9z"/>
<path d="M1868 143 c7 -3 16 -2 19 1 4 3 -2 6 -13 5 -11 0 -14 -3 -6 -6z"/>
<path d="M1291 119 c-14 -5 -39 -7 -55 -4 -30 5 -30 5 -6 -6 23 -10 158 -8
220 4 14 2 17 2 8 0 -39 -10 -14 -18 44 -15 151 7 100 31 -67 31 -66 0 -131
-5 -144 -10z"/>
</g>
</svg>
